<?xml version="1.0" standalone="no"?>
<!DOCTYPE svg PUBLIC "-//W3C//DTD SVG 20010904//EN"
 "http://www.w3.org/TR/2001/REC-SVG-20010904/DTD/svg10.dtd">
<svg version="1.0" xmlns="http://www.w3.org/2000/svg"
 width="300.000000pt" height="388.000000pt" viewBox="0 0 300.000000 388.000000"
 preserveAspectRatio="xMidYMid meet">
<metadata>
Created by potrace 1.10, written by Peter Selinger 2001-2011
</metadata>
<g transform="translate(0.000000,388.000000) scale(0.100000,-0.100000)"
fill="#000000" stroke="none">
<path d="M1347 3078 c-3 -13 -9 -56 -13 -96 -5 -51 -10 -70 -16 -60 -7 9 -8 1
-4 -22 9 -47 -4 -162 -15 -135 -4 11 -8 39 -8 62 -1 23 -5 44 -10 47 -9 6 -5
-63 9 -135 5 -25 6 -64 3 -85 -6 -36 -7 -37 -14 -14 -4 14 -8 45 -9 70 -1 25
-5 54 -10 65 -9 22 -4 -103 6 -171 l6 -42 -48 -10 c-27 -6 -57 -14 -66 -17
-14 -6 -16 -1 -11 32 4 32 -2 51 -32 106 -35 64 -37 71 -31 130 6 51 3 68 -14
99 -11 22 -19 54 -19 75 1 23 3 29 6 16 2 -12 24 -44 48 -71 35 -39 45 -60 54
-107 6 -33 16 -64 21 -69 14 -14 12 -29 -2 -19 -7 4 -17 8 -23 8 -5 0 -10 19
-9 43 1 55 -14 55 -19 0 l-4 -43 -2 50 c-2 44 -3 47 -12 25 -14 -36 -3 -69 43
-123 27 -33 42 -62 46 -90 l7 -42 6 45 6 45 8 -33 c5 -21 11 -29 15 -22 10 16
-13 59 -50 95 -29 28 -43 59 -17 36 8 -6 18 -7 22 -3 5 4 5 1 0 -7 -6 -10 -4
-12 5 -6 9 6 11 4 5 -5 -6 -9 -4 -11 5 -5 8 5 11 4 7 -1 -3 -6 -2 -16 4 -24 6
-11 9 -12 9 -2 0 7 5 10 10 7 14 -9 12 9 -2 23 -7 7 -11 29 -10 50 2 20 -4 57
-13 82 l-15 45 5 -40 c3 -22 8 -58 11 -80 l6 -40 -21 25 c-11 14 -23 45 -26
70 -10 70 -15 80 -57 126 -31 33 -38 48 -33 65 5 14 4 19 -4 15 -7 -5 -11 2
-11 18 0 44 -18 29 -29 -25 -10 -44 -9 -57 9 -96 14 -33 19 -63 18 -116 -2
-61 2 -80 24 -122 30 -57 41 -96 32 -119 -5 -13 -9 -14 -20 -5 -16 13 -19 33
-4 24 6 -3 7 1 3 10 -4 12 -8 13 -13 4 -6 -8 -13 -3 -23 17 -9 16 -28 43 -44
60 -15 17 -73 87 -127 157 -141 180 -146 172 -47 -61 63 -150 70 -170 46 -138
-8 11 -15 15 -15 9 0 -5 10 -21 23 -35 26 -28 61 -97 54 -105 -3 -2 -10 5 -16
16 -7 12 -17 18 -26 15 -9 -4 -35 15 -70 52 -61 66 -76 68 -18 3 35 -39 36
-41 13 -35 -14 4 -50 34 -80 67 -30 33 -63 59 -72 59 -35 0 -93 31 -113 60
-26 39 -38 38 -30 -2 12 -53 32 -85 70 -108 20 -12 42 -35 50 -50 19 -37 19
-46 0 -30 -8 7 -15 10 -15 6 0 -9 83 -83 125 -112 21 -14 44 -31 51 -39 15
-15 37 -65 28 -65 -2 0 -28 12 -57 27 -29 15 -59 28 -67 29 -8 1 -85 31 -170
66 -183 77 -200 83 -200 69 0 -6 62 -58 138 -117 75 -58 136 -110 135 -115 -2
-5 24 -22 57 -39 61 -31 78 -47 38 -36 -13 3 -55 1 -94 -6 -66 -11 -76 -10
-133 11 -38 15 -69 21 -83 17 -72 -22 -89 -24 -103 -9 -8 8 -19 11 -25 8 -5
-3 -20 1 -32 11 -23 16 -23 16 11 10 30 -5 32 -4 20 10 -20 24 -66 45 -85 37
-11 -4 -15 -3 -11 4 5 7 -1 9 -15 5 -21 -5 -21 -6 -2 -13 11 -5 13 -8 5 -8
-18 -1 26 -51 44 -51 6 0 22 -12 36 -26 38 -41 81 -62 127 -62 32 -1 52 -8 83
-32 33 -27 53 -34 122 -42 55 -7 91 -17 112 -31 l30 -22 -225 -32 c-124 -17
-239 -32 -256 -32 -31 -1 -59 -31 -29 -31 8 0 12 -6 9 -13 -7 -19 65 -40 83
-26 7 6 10 16 6 22 -4 6 2 8 18 4 13 -4 71 -12 129 -19 88 -10 99 -14 70 -20
-22 -4 -6 -6 45 -3 91 4 140 -7 90 -19 -16 -4 -50 -27 -75 -50 -39 -37 -55
-44 -104 -50 -48 -6 -65 -14 -106 -51 -30 -27 -67 -49 -92 -55 -24 -6 -49 -13
-56 -15 -6 -2 -12 1 -12 7 0 6 -3 8 -6 5 -9 -9 15 -37 50 -58 22 -13 34 -15
57 -7 16 5 29 14 29 19 0 5 23 20 50 34 47 24 56 25 107 15 54 -10 59 -9 112
22 56 31 125 46 136 28 7 -11 -51 -56 -113 -87 -26 -13 -36 -21 -22 -17 26 7
-1 -16 -186 -157 -81 -62 -92 -74 -83 -90 12 -24 36 -24 92 0 79 34 66 56 -15
27 -53 -19 -68 -4 -23 24 34 21 66 20 35 -1 -21 -14 26 -1 63 18 15 7 33 13
40 12 23 -3 40 1 34 8 -4 4 23 19 59 35 37 16 69 27 71 25 2 -2 -14 -15 -34
-29 -21 -14 -50 -37 -66 -51 -22 -21 -32 -25 -51 -18 -12 5 -29 6 -36 1 -9 -5
3 -13 36 -22 48 -14 50 -14 74 11 13 14 23 31 22 37 -1 6 16 24 38 39 23 16
44 33 48 39 4 6 25 19 47 29 l40 17 -39 -32 c-81 -69 -101 -87 -95 -88 3 0 23
14 44 30 21 17 40 28 42 26 9 -9 -13 -34 -74 -85 -35 -28 -63 -54 -63 -58 0
-6 14 4 74 54 22 18 41 31 44 29 7 -8 -32 -66 -48 -71 -32 -10 -68 -61 -84
-117 -12 -44 -25 -64 -52 -84 -35 -27 -35 -27 -15 -47 18 -19 23 -19 80 -6 42
9 61 18 61 29 0 21 65 90 86 90 19 0 74 53 74 71 0 6 -15 0 -34 -15 -19 -14
-42 -26 -51 -26 -20 0 -107 -91 -101 -106 3 -7 -5 -12 -17 -12 -12 0 -39 -4
-59 -10 -52 -14 -48 -7 11 19 34 14 58 33 75 60 17 25 44 47 80 64 31 15 66
41 82 63 16 20 27 38 24 38 -10 3 35 46 62 60 40 21 44 17 17 -13 -13 -15 -16
-21 -6 -14 16 13 17 12 8 -13 -6 -14 -18 -40 -27 -57 -8 -17 -17 -38 -19 -47
-2 -10 -32 -87 -67 -172 -52 -127 -62 -159 -53 -177 13 -29 16 -29 50 7 16 16
36 30 44 30 11 0 10 4 -5 14 -17 13 -22 12 -45 -11 -18 -17 -29 -21 -34 -13
-8 12 1 25 16 25 5 0 26 18 45 40 21 24 30 31 24 17 -12 -25 -7 -52 10 -52 5
0 10 7 10 17 0 9 11 35 25 59 14 23 23 49 20 56 -3 8 11 35 31 61 38 49 55 57
33 15 -11 -20 -11 -22 3 -10 17 14 32 56 17 46 -17 -10 -9 6 26 52 33 43 49
38 24 -8 -8 -15 -8 -19 0 -14 17 11 13 -34 -9 -99 -11 -32 -18 -60 -15 -63 5
-5 11 8 30 70 l14 43 0 -50 c0 -27 -6 -61 -14 -75 -17 -31 -19 -73 -4 -137 10
-41 9 -54 -5 -81 -9 -18 -12 -32 -7 -32 14 0 32 26 23 35 -4 5 -1 5 5 1 19
-11 53 53 53 99 0 30 8 50 34 83 33 40 44 81 44 159 1 12 8 39 18 58 l17 37
14 -32 c7 -18 13 -49 13 -69 0 -20 4 -51 9 -69 5 -17 17 -96 26 -175 20 -164
45 -235 80 -224 13 5 25 76 13 83 -4 3 -1 12 8 21 12 12 14 26 9 57 -4 23 -9
520 -12 1104 -4 1151 0 1092 -56 1092 -17 0 -26 -7 -30 -22z m21 -38 c-3 -27
-1 -50 4 -50 4 0 8 18 8 40 0 22 5 40 10 40 7 0 9 -160 8 -462 0 -255 -4 -443
-7 -418 -4 33 -8 40 -13 27 -10 -24 -9 -209 1 -267 7 -35 9 -19 10 74 0 66 3
117 6 115 2 -3 5 -266 7 -585 1 -443 -1 -584 -11 -602 -8 -15 -9 -35 -4 -60
l8 -37 5 55 c5 49 7 52 16 31 8 -18 7 -42 -1 -83 -15 -68 -25 -84 -26 -42 -1
29 -1 29 -9 4 -7 -22 -8 -20 -9 14 -1 21 -8 82 -16 135 -8 53 -16 123 -19 156
-2 33 -8 71 -12 85 -7 23 -6 24 12 10 17 -14 18 -13 7 1 -7 9 -9 20 -5 24 4 5
1 5 -5 1 -8 -4 -13 -2 -14 6 0 7 -1 27 -2 44 -1 20 3 31 10 30 21 -3 27 -15
34 -64 l6 -47 2 63 1 62 -33 0 c-52 0 -179 36 -244 68 -108 55 -206 153 -262
263 -38 75 -81 241 -63 246 6 3 12 11 12 18 0 7 -6 15 -12 18 -10 3 -10 9 0
26 7 12 10 31 7 42 -4 11 -1 43 5 70 9 38 16 49 27 44 13 -4 14 1 9 25 -7 37
35 130 60 130 12 0 10 -9 -11 -43 -14 -24 -25 -48 -25 -54 0 -5 16 -16 35 -23
26 -10 34 -18 29 -29 -3 -9 -9 -24 -11 -33 -6 -20 -20 -22 -58 -8 -23 9 -27 7
-35 -16 -6 -14 -10 -41 -10 -60 0 -32 2 -34 34 -34 30 0 35 -4 41 -30 9 -40 0
-50 -41 -50 -37 0 -41 -11 -28 -80 7 -31 8 -32 49 -26 41 7 42 6 52 -28 11
-35 10 -36 -23 -48 -19 -6 -34 -16 -34 -22 0 -5 12 -29 26 -53 l26 -44 32 25
33 25 23 -31 22 -30 -28 -29 -27 -29 29 -25 c53 -47 61 -48 81 -15 20 35 29
36 61 12 23 -18 23 -20 9 -54 l-15 -36 39 -16 c56 -23 69 -20 76 14 7 38 13
41 52 34 28 -6 31 -10 31 -44 0 -41 19 -57 48 -40 14 8 12 9 -11 10 -28 0 -29
1 -22 39 6 38 6 39 -27 46 -18 3 -41 9 -50 11 -13 4 -20 -5 -29 -36 -7 -22
-13 -40 -14 -40 -2 0 -19 7 -39 15 -36 15 -36 16 -21 45 23 45 25 42 -67 88
-3 2 -14 -11 -24 -27 -10 -17 -21 -31 -24 -31 -3 0 -18 12 -34 26 l-29 26 34
34 34 34 50 -36 c71 -51 139 -81 219 -95 77 -13 86 -8 85 46 0 25 -2 27 -8 10
-5 -11 -6 -25 -4 -31 7 -20 -12 -24 -53 -13 -54 15 -154 121 -194 205 -28 58
-30 70 -25 131 4 40 2 63 -3 55 -5 -7 -15 -10 -23 -7 -11 4 -15 -4 -15 -35 -1
-22 2 -40 7 -40 5 0 9 -9 9 -19 0 -28 75 -170 107 -203 27 -29 21 -34 -24 -22
-13 4 -20 11 -16 16 3 6 0 9 -8 6 -7 -2 -24 8 -37 24 -19 22 -29 27 -50 22
-15 -4 -24 -3 -20 1 4 4 1 13 -6 19 -8 6 -17 20 -20 31 -5 16 0 23 24 32 48
18 32 73 -22 73 -7 0 -2 -6 11 -13 33 -16 41 -42 12 -34 -18 4 -20 3 -10 -9 9
-11 8 -14 -2 -15 -8 0 -22 -2 -31 -4 -11 -2 -18 3 -18 11 0 9 -4 12 -10 9 -5
-3 -10 -1 -10 5 0 7 8 9 19 5 33 -10 33 13 1 36 -16 13 -30 28 -30 35 0 6 -7
17 -15 24 -8 7 -15 16 -15 20 0 14 25 5 50 -18 13 -12 35 -22 49 -21 l26 1
-25 8 c-21 7 -22 8 -4 9 22 1 44 19 44 36 0 5 -5 2 -11 -7 -15 -27 -47 -22
-55 7 -7 28 -14 31 -32 13 -9 -9 -12 -7 -12 11 0 12 4 20 9 17 5 -4 7 3 4 14
-3 11 -9 18 -13 15 -4 -2 -8 8 -9 23 0 15 -2 45 -4 67 -4 55 1 68 20 49 23
-23 28 -8 8 22 -10 15 -21 39 -25 53 -3 14 -11 26 -16 26 -22 2 -54 17 -54 27
0 13 33 68 41 68 13 0 26 -26 33 -62 4 -21 11 -38 15 -38 5 0 6 -11 3 -25 -5
-26 21 -65 42 -65 6 0 3 7 -7 14 -11 8 -15 20 -11 32 5 16 4 16 -5 4 -9 -13
-11 -12 -11 4 0 15 5 17 30 13 17 -4 30 -2 30 3 0 12 -41 50 -55 50 -6 0 -12
16 -13 37 -3 41 -21 83 -22 50 0 -31 -25 -13 -26 19 -2 36 35 78 130 145 44
31 80 49 98 49 15 0 28 4 28 10 0 13 73 32 145 37 32 2 60 5 61 6 2 1 4 98 6
214 2 117 -1 202 -5 191 -4 -12 -8 -104 -9 -205 l-1 -183 -31 0 -32 0 10 75
c6 51 14 75 23 75 7 0 13 5 13 11 0 5 -4 7 -10 4 -15 -9 -11 38 26 313 7 59
16 53 12 -8z m-536 -170 c13 -19 32 -54 41 -78 9 -23 35 -72 57 -108 22 -36
40 -68 40 -71 0 -3 16 -31 35 -63 38 -63 43 -80 20 -80 -8 0 -15 -4 -15 -10 0
-22 -18 -8 -30 23 -7 17 -38 91 -68 162 -129 307 -121 286 -80 225z m153 -200
c39 -50 82 -106 97 -123 28 -33 28 -47 -1 -47 -23 0 -41 21 -80 93 -18 32 -45
79 -61 105 -16 26 -36 61 -45 77 -16 29 -16 30 2 8 10 -11 50 -62 88 -113z
m-370 2 c10 -2 36 -21 56 -42 21 -21 40 -36 42 -33 3 3 4 -3 1 -14 -10 -41 43
-93 110 -108 16 -3 44 -21 62 -39 18 -18 36 -31 39 -28 15 15 2 -19 -16 -42
l-21 -27 -17 33 c-10 18 -32 42 -50 53 -17 11 -46 29 -64 40 -20 13 -43 43
-61 82 -22 45 -40 67 -71 86 -24 14 -45 35 -48 48 -5 20 -4 21 6 9 7 -8 21
-17 32 -18z m215 -136 c40 -17 26 -22 -17 -5 -15 5 -24 7 -20 2 5 -4 29 -15
54 -23 42 -15 44 -17 27 -30 -15 -13 -16 -13 -9 -1 6 11 4 13 -7 9 -8 -4 -29
2 -46 12 -16 10 -34 16 -38 12 -4 -4 -4 -2 0 5 3 6 2 14 -3 17 -5 3 -14 20
-20 38 l-11 32 27 -26 c16 -15 44 -34 63 -42z m100 -52 c42 -38 48 -55 27 -72
-9 -8 -21 -2 -45 24 -35 37 -32 47 4 13 16 -15 24 -17 29 -8 5 7 4 10 -2 6 -9
-6 -48 30 -48 46 0 4 -7 12 -15 17 -10 6 -11 10 -3 10 7 0 31 -16 53 -36z
m-483 -6 c21 -12 51 -32 67 -45 16 -13 47 -34 69 -46 22 -12 47 -27 56 -32 9
-6 53 -32 99 -59 74 -43 99 -66 73 -66 -5 0 -11 -8 -13 -18 -2 -15 -40 10
-181 119 -98 75 -188 144 -200 153 -33 23 -13 19 30 -6z m188 -78 c11 -5 45
-20 75 -33 30 -14 76 -33 102 -42 42 -15 46 -19 35 -36 -14 -23 -27 -19 -110
28 -34 20 -78 44 -97 55 -19 10 -46 28 -60 39 l-25 20 30 -12 c17 -6 39 -15
50 -19z m-117 -200 c44 -17 60 -19 90 -10 99 27 193 -5 162 -55 -3 -5 -7 -26
-9 -45 -2 -19 -4 -36 -6 -38 -1 -2 -18 6 -36 17 -26 16 -51 21 -104 21 -50 0
-77 5 -96 18 -83 55 -97 62 -131 62 -20 0 -40 5 -43 10 -4 6 -11 8 -16 5 -5
-4 -9 -2 -9 2 0 10 70 29 115 32 17 0 54 -8 83 -19z m392 -129 c-6 -21 -10
-65 -8 -98 1 -34 0 -59 -4 -56 -21 12 0 -81 30 -134 7 -12 12 -32 12 -45 0
-13 7 -32 15 -42 14 -18 12 -21 -22 -42 l-38 -22 -17 26 c-25 37 -23 48 13 62
25 11 29 17 25 36 -14 56 -26 75 -44 70 -9 -2 -27 -7 -38 -10 -18 -6 -22 -1
-28 25 -11 56 -9 59 34 59 l40 0 0 49 0 48 -41 7 -41 7 7 37 c8 46 7 45 39 32
43 -16 53 -12 61 23 4 18 9 26 12 18 3 -7 0 -30 -7 -50z m-163 -82 c-2 -11
-10 -25 -18 -30 -19 -12 -121 -11 -154 1 -14 5 -24 6 -21 1 3 -4 -21 -8 -54
-7 -66 0 -71 12 -7 20 89 12 134 17 177 23 25 3 47 7 49 9 13 12 30 1 28 -17z
m-457 -55 l-25 -15 25 6 c22 5 23 4 7 -5 -20 -13 -52 -6 -43 9 4 5 0 12 -6 14
-7 3 5 6 27 6 40 0 40 0 15 -15z m292 5 c148 0 158 -1 158 -19 0 -10 3 -26 7
-36 5 -14 3 -16 -11 -11 -10 4 -99 17 -199 29 -100 13 -171 25 -157 27 23 3
24 4 5 12 -15 7 -13 8 9 4 16 -4 101 -6 188 -6z m168 -96 c0 -5 3 -18 6 -29 5
-20 1 -22 -44 -25 -37 -3 -48 -1 -41 7 6 8 4 14 -6 17 -8 4 -14 3 -13 -1 1 -4
-10 -26 -26 -49 -27 -40 -29 -41 -78 -39 -32 2 -51 -1 -54 -9 -3 -7 -21 -12
-41 -11 -20 0 -38 -4 -40 -9 -2 -7 24 -10 74 -8 105 4 124 7 121 15 -2 3 8 18
21 32 17 18 27 22 32 15 4 -8 11 -4 18 10 21 38 101 24 101 -18 0 -12 -12 -16
-48 -17 -35 -1 -59 -9 -97 -33 -48 -31 -53 -32 -123 -26 -58 5 -79 3 -98 -10
-13 -8 -24 -11 -24 -5 0 5 5 10 10 10 6 0 10 5 10 11 0 8 -5 8 -15 -1 -8 -7
-15 -19 -15 -26 0 -17 -20 -19 -21 -1 0 10 -2 10 -6 0 -2 -7 -17 -13 -31 -13
-26 1 -25 2 8 16 19 8 51 31 72 51 20 20 41 32 48 28 6 -4 16 -2 23 3 7 5 28
12 47 16 20 3 53 22 75 42 22 20 54 42 70 50 33 14 85 19 85 7z m57 -204 c-15
-23 -121 -84 -113 -64 3 8 1 15 -4 15 -6 0 -10 -4 -10 -8 0 -16 -37 -52 -52
-52 -9 0 -21 -7 -29 -16 -7 -8 -30 -24 -51 -35 -21 -11 -38 -24 -38 -29 0 -5
35 11 78 37 42 25 91 53 107 61 17 9 50 28 74 44 54 34 61 34 83 4 l17 -23
-75 -29 c-50 -19 -70 -31 -61 -37 8 -6 6 -7 -6 -3 -10 3 -63 -12 -117 -34 -97
-39 -147 -50 -135 -31 3 5 60 50 126 100 106 80 123 90 142 80 20 -9 21 -9 4
4 -17 14 -17 16 8 36 21 16 30 18 45 9 14 -9 16 -15 7 -29z m-490 -22 c11 -12
-37 -12 -58 -1 -23 13 -22 13 15 9 21 -2 41 -6 43 -8z m560 -78 c-9 -5 -24
-24 -33 -42 l-17 -32 26 24 c15 13 24 28 21 32 -3 5 5 9 17 9 12 0 19 -3 16
-7 -4 -3 9 -17 29 -31 39 -26 39 -26 -6 -51 -18 -9 -44 -37 -57 -62 -36 -63
-58 -84 -114 -108 -45 -18 -50 -19 -47 -4 2 9 17 20 34 25 41 10 65 39 89 106
14 41 29 63 54 79 22 15 28 23 17 23 -9 0 -29 -12 -44 -27 -15 -15 -31 -26
-36 -25 -5 2 -6 -6 -3 -18 3 -13 1 -18 -6 -13 -6 4 -8 0 -4 -10 7 -20 -2 -49
-13 -42 -4 2 -16 -5 -26 -17 -19 -21 -19 -21 6 -8 l25 13 -19 -22 c-11 -12
-30 -21 -45 -20 -24 0 -24 1 -6 9 19 8 19 9 1 9 -18 1 -18 3 6 29 14 15 33 49
42 77 17 52 70 115 95 115 13 -1 13 -2 -2 -11z m163 -136 c0 -16 -42 -92 -78
-140 -13 -18 -21 -33 -18 -33 4 0 4 -5 0 -11 -5 -8 -10 -7 -16 4 -6 11 3 44
27 104 31 75 40 88 61 89 15 1 24 -4 24 -13z m10 -60 c-22 -38 -22 -38 0 -14
11 13 24 31 29 39 4 8 16 12 26 11 15 -3 10 -13 -27 -59 -25 -30 -89 -113
-142 -185 -113 -149 -116 -153 -116 -138 0 6 22 44 48 85 64 97 83 128 102
160 64 114 94 161 98 150 2 -6 -6 -29 -18 -49z m92 -6 c-8 -9 -8 -22 -2 -43
l10 -29 -4 28 c-2 15 1 27 6 27 5 0 7 4 4 8 -2 4 0 14 5 22 8 12 12 12 16 2 2
-6 9 -9 14 -6 5 3 1 -9 -11 -28 -11 -18 -20 -45 -20 -60 0 -31 -26 -39 -33
-10 -2 9 -3 -1 0 -22 2 -22 8 -46 14 -55 7 -12 8 -7 5 19 -3 19 -3 29 0 22 3
-6 9 -10 13 -8 4 3 8 -5 9 -17 4 -58 2 -80 -9 -93 -6 -8 -10 -17 -7 -20 3 -2
13 7 23 22 14 22 16 38 10 83 -4 31 -7 68 -8 83 0 39 29 78 58 78 30 0 30 -2
8 -43 -9 -18 -19 -69 -23 -114 -6 -72 -10 -86 -37 -117 -28 -31 -47 -77 -42
-102 4 -23 -2 -52 -16 -70 -14 -18 -14 -18 -13 6 1 14 -4 46 -11 72 -12 42
-11 53 9 116 18 61 20 76 10 114 -13 46 -7 123 11 145 7 7 14 11 17 8 3 -2 0
-11 -6 -18z m-459 -129 c-10 -18 -34 -41 -53 -51 l-35 -19 33 29 c18 15 32 33
32 39 0 12 21 34 33 34 5 0 0 -14 -10 -32z"/>
<path d="M1290 2510 c-32 -17 -36 -17 -42 -2 -5 13 -7 13 -7 3 -1 -22 -41 -60
-56 -55 -9 4 -14 -9 -16 -46 -2 -29 0 -54 4 -57 11 -7 74 43 88 70 7 13 -7 4
-35 -23 -46 -44 -46 -44 -46 -17 0 17 5 27 15 27 13 0 20 17 17 41 -1 6 103
58 143 71 17 5 17 6 -5 6 -14 0 -41 -8 -60 -18z"/>
<path d="M1321 2456 c-27 -63 -126 -131 -155 -107 -18 15 -27 72 -13 89 5 7 7
16 3 19 -12 12 -24 -17 -24 -58 -1 -21 -4 -43 -7 -49 -10 -17 -25 -11 -19 8 3
9 -5 -1 -17 -23 -24 -43 -34 -36 -27 20 3 26 0 33 -12 32 -12 -1 -14 -10 -12
-41 4 -45 37 -126 51 -126 5 0 11 -12 13 -27 l4 -28 12 25 12 25 -5 -28 c-4
-19 -2 -26 5 -22 13 8 13 62 0 70 -5 3 -10 1 -10 -5 0 -6 -4 -8 -10 -5 -5 3
-10 17 -10 31 0 14 4 23 9 20 8 -5 21 15 21 31 0 15 -39 -32 -43 -51 -3 -12
-5 -6 -6 15 -1 42 13 58 57 64 21 2 36 -3 48 -16 28 -31 95 -20 142 23 37 35
25 40 -20 8 -31 -23 -51 -30 -82 -29 -35 2 -37 3 -11 7 27 4 28 5 10 13 -17 8
-15 9 8 5 15 -2 25 -1 23 2 -6 6 56 49 81 55 13 3 12 5 -6 6 -18 1 -22 4 -14
12 8 8 17 8 32 0 17 -9 20 -9 15 3 -3 8 -12 17 -21 20 -12 5 -11 9 8 24 19 16
20 20 6 25 -12 5 -21 -5 -36 -37z"/>
<path d="M1126 2474 c-9 -8 -16 -10 -16 -4 0 14 -23 1 -70 -39 -19 -17 -29
-31 -22 -31 8 0 27 14 42 30 34 36 46 39 24 5 -25 -38 -3 -28 35 16 33 38 37
54 7 23z"/>
<path d="M964 2368 c-11 -18 -12 -48 -2 -48 4 0 8 6 8 13 0 8 3 7 9 -3 13 -19
4 -30 -17 -24 -15 5 -15 5 -1 -5 22 -14 33 -59 18 -77 -21 -25 -1 -15 29 16
17 16 27 32 22 35 -5 3 -11 1 -15 -5 -13 -21 -27 3 -21 35 5 26 3 36 -11 45
-16 10 -16 11 4 7 15 -3 20 -1 16 9 -6 17 -29 18 -39 2z"/>
<path d="M1351 2309 c-1 -23 5 -42 16 -50 15 -12 16 -12 9 6 -5 11 -12 34 -16
50 l-8 30 -1 -36z"/>
<path d="M1167 2283 c-4 -3 -7 -11 -7 -17 0 -6 4 -6 11 1 6 6 18 9 25 6 10 -4
9 -9 -7 -22 -18 -14 -21 -28 -20 -71 1 -59 -7 -70 -53 -70 -22 0 -26 3 -18 13
8 9 2 12 -26 10 -21 -1 -39 -2 -42 -2 -3 -1 -5 -12 -5 -25 0 -17 3 -22 12 -15
8 7 13 3 18 -12 7 -20 8 -20 17 -6 5 10 21 17 37 17 16 0 40 9 55 21 14 11 26
16 26 10 0 -6 5 -11 10 -11 6 0 10 9 10 21 0 11 -4 17 -10 14 -13 -8 -24 40
-15 62 8 17 8 17 13 -1 3 -15 6 -16 12 -6 5 9 3 18 -6 24 -12 9 -11 13 7 24
12 8 19 9 15 4 -4 -7 12 -19 56 -39 3 -2 13 4 22 12 8 8 17 11 21 6 3 -5 -4
-12 -15 -16 -22 -7 -27 -25 -7 -25 30 1 37 15 28 60 -5 25 -9 35 -10 23 -1
-29 -29 -43 -60 -32 -17 7 -21 13 -13 22 8 9 5 12 -11 12 -12 1 -31 4 -43 8
-11 4 -23 4 -27 0z"/>
<path d="M1024 2205 c-7 -16 12 -45 28 -45 6 0 5 7 -2 15 -7 8 -10 22 -6 30 3
8 1 15 -5 15 -5 0 -12 -7 -15 -15z"/>
<path d="M1040 2059 c0 -11 -4 -17 -10 -14 -15 9 -12 -4 8 -33 33 -48 34 -60
4 -77 l-27 -16 28 4 c19 3 27 0 27 -10 0 -11 -7 -13 -23 -10 -29 8 -52 -6 -44
-27 7 -18 27 -22 27 -5 0 5 -4 7 -10 4 -5 -3 -10 -2 -10 3 0 14 26 22 36 12 5
-5 20 0 33 11 16 13 21 23 14 27 -9 6 -14 28 -25 99 -1 6 -7 9 -13 6 -9 -3
-11 4 -8 21 3 14 3 26 -1 26 -3 0 -6 -9 -6 -21z"/>
<path d="M1211 2071 l-35 -6 53 -19 c38 -13 55 -26 62 -44 11 -27 -5 -57 -19
-36 -12 18 -56 44 -73 44 -9 0 -34 -7 -55 -16 l-39 -16 35 -29 c19 -17 45 -29
60 -28 l25 1 -25 8 c-21 7 -22 8 -5 10 15 1 16 3 5 7 -28 11 -40 29 -27 42 15
15 42 14 56 -3 9 -11 9 -16 0 -21 -7 -5 1 -13 21 -23 31 -15 34 -15 50 5 17
21 17 21 17 -10 0 -17 5 -33 11 -35 7 -2 12 -12 12 -23 0 -10 5 -19 10 -19 14
0 12 27 -3 42 -8 6 -11 22 -9 35 2 13 -2 31 -10 41 -16 19 -32 53 -30 64 1 4
-9 10 -23 14 -14 3 -22 10 -19 15 3 5 2 8 -3 8 -4 -1 -23 -4 -42 -8z"/>
<path d="M957 2043 c-11 -11 -8 -43 4 -43 7 0 9 -10 7 -25 -4 -21 -3 -23 9
-13 17 14 13 54 -5 50 -9 -2 -11 4 -7 18 6 20 4 25 -8 13z"/>
<path d="M1145 2019 c-27 -18 -28 -20 -5 -12 14 4 47 8 74 7 45 -1 47 0 25 12
-34 19 -60 17 -94 -7z"/>
<path d="M1008 2005 c9 -17 6 -25 -21 -53 l-32 -34 35 19 c39 22 49 53 24 74
-16 13 -17 12 -6 -6z"/>
<path d="M1160 1845 c0 -3 11 -10 25 -15 26 -10 32 -24 16 -35 -5 -3 -12 -1
-16 5 -3 5 -15 10 -27 10 -17 0 -18 -2 -8 -15 14 -17 70 -17 82 -1 4 6 -7 20
-25 33 -30 22 -47 29 -47 18z"/>
<path d="M1336 1819 c-15 -9 -16 -13 -5 -20 11 -8 10 -12 -6 -25 -18 -13 -21
-13 -31 1 -16 22 -27 18 -14 -5 8 -15 17 -19 31 -15 15 5 19 2 19 -19 0 -14
-5 -28 -10 -31 -6 -4 -8 -10 -5 -15 3 -5 0 -12 -6 -16 -8 -5 -10 -2 -5 7 4 8
1 6 -8 -5 -8 -10 -19 -15 -25 -12 -5 4 -13 1 -17 -5 -5 -8 2 -10 24 -7 31 4
49 -12 36 -33 -3 -5 0 -9 5 -9 6 0 11 -7 11 -15 0 -8 -7 -15 -15 -15 -8 0 -15
-4 -15 -10 0 -5 7 -7 16 -3 13 5 15 2 9 -15 -3 -13 -2 -22 4 -22 14 0 18 9 25
53 4 26 2 37 -7 37 -7 0 -13 9 -13 20 0 15 5 18 18 14 23 -7 24 12 1 21 -17 6
-17 7 0 20 10 7 14 16 9 19 -5 3 -7 30 -5 61 2 30 3 55 1 55 -2 0 -11 -5 -22
-11z"/>
<path d="M1244 1772 c4 -6 -1 -8 -13 -5 -10 3 -22 0 -25 -6 -6 -9 8 -17 79
-49 6 -3 2 4 -8 15 -10 11 -17 26 -15 33 2 7 -3 15 -11 18 -8 2 -11 0 -7 -6z"/>
<path d="M1067 1728 c-4 -16 -12 -28 -17 -28 -6 0 -10 -7 -10 -15 0 -17 46
-39 61 -29 12 7 11 31 -2 40 -8 4 -9 0 -4 -15 7 -24 0 -27 -20 -8 -9 9 -10 19
-3 31 5 9 8 24 6 34 -3 12 -6 9 -11 -10z"/>
<path d="M455 2200 c5 -9 2 -10 -15 -5 -15 5 -20 4 -16 -4 4 -6 15 -11 25 -11
10 0 24 -7 32 -16 33 -40 132 -69 141 -42 5 15 97 11 116 -4 7 -6 15 -8 18 -5
3 3 -6 13 -20 22 -20 14 -39 15 -105 10 -81 -7 -121 -1 -121 16 0 6 7 6 19 -1
35 -18 36 -11 1 15 -26 19 -36 22 -47 13 -11 -9 -13 -8 -11 2 2 7 -3 15 -11
18 -9 3 -11 0 -6 -8z"/>
<path d="M795 1435 c-10 -25 -16 -48 -13 -51 3 -2 12 17 21 43 20 62 14 68 -8
8z"/>
<path d="M1133 1103 c-13 -19 -19 -31 -14 -28 5 3 3 -8 -5 -24 -12 -25 -12
-35 1 -82 l15 -54 -6 49 c-4 32 -2 51 6 56 6 4 12 22 12 41 0 19 5 42 10 52
17 33 4 26 -19 -10z"/>
<path d="M1061 2955 c-1 -5 13 -30 29 -54 17 -24 30 -40 30 -35 0 5 5 2 10 -6
8 -13 10 -13 10 2 0 10 -11 25 -25 34 -14 9 -32 29 -40 43 -8 14 -14 22 -14
16z"/>
<path d="M802 2735 c24 -35 49 -67 56 -70 16 -6 12 0 -41 78 -55 79 -67 72
-15 -8z"/>
<path d="M840 2620 c18 -23 35 -39 38 -36 7 7 -47 76 -59 76 -6 0 4 -18 21
-40z"/>
<path d="M630 2463 c0 -4 23 -23 51 -41 28 -19 49 -30 46 -25 -9 15 -97 75
-97 66z"/>
<path d="M1810 2279 c-13 -6 -32 -17 -42 -26 -15 -14 -16 -18 -3 -36 22 -31
20 -155 -2 -179 -14 -16 -14 -18 0 -18 8 0 17 -4 19 -9 3 -10 194 -19 203 -9
7 7 -13 55 -36 86 l-18 23 -13 -28 c-19 -40 -62 -39 -66 1 -3 24 -1 28 15 22
28 -11 31 -12 33 -3 5 17 -10 67 -21 67 -7 0 -9 -9 -5 -25 6 -24 -7 -35 -19
-15 -3 6 -13 10 -21 10 -21 0 -18 -56 6 -80 22 -22 42 -25 71 -9 19 10 49 -2
49 -20 0 -5 -81 -6 -150 -2 -12 1 -15 20 -15 106 1 92 3 106 20 119 27 21 52
21 32 1 -18 -17 -31 -70 -22 -85 10 -16 25 -1 25 24 0 32 24 49 66 49 41 0 51
-8 34 -28 -14 -17 -50 -21 -50 -5 0 6 -5 10 -12 10 -6 0 -1 -11 12 -25 29 -31
60 -29 76 4 10 20 9 29 -3 48 -9 13 -21 22 -27 21 -6 -1 -29 4 -51 10 -47 14
-52 14 -85 1z"/>
<path d="M2400 2272 c-125 -62 -64 -295 73 -278 72 8 114 75 105 168 -6 58
-42 103 -97 118 -45 12 -40 13 -81 -8z m-2 -49 c-23 -45 -19 -129 8 -171 l17
-27 -22 19 c-12 11 -30 39 -41 63 -21 49 -14 89 23 131 31 33 37 27 15 -15z
m100 -28 c32 -98 -43 -212 -78 -120 -26 67 2 169 45 163 13 -2 24 -16 33 -43z
m59 -72 c-7 -41 -43 -93 -64 -93 -15 0 -15 2 0 18 20 22 30 67 37 157 1 15 6
11 17 -15 8 -20 13 -48 10 -67z"/>
<path d="M2430 2157 c0 -14 31 -47 43 -47 12 0 8 35 -5 48 -16 16 -38 15 -38
-1z"/>
<path d="M2645 2278 c-48 -26 -58 -69 -25 -110 23 -29 122 -75 113 -52 -3 7
-23 19 -45 26 -44 13 -61 36 -56 76 4 33 39 48 91 38 33 -6 35 -9 25 -26 -11
-17 -14 -17 -28 -5 -24 22 -60 19 -60 -4 0 -25 16 -36 24 -16 7 19 30 19 46 0
16 -20 22 -19 51 6 31 27 18 48 -41 65 -54 16 -69 17 -95 2z"/>
<path d="M465 2266 c10 -9 33 -20 50 -25 16 -5 45 -14 64 -20 55 -17 22 6 -39
28 -105 37 -98 35 -75 17z"/>
<path d="M560 2271 c0 -5 19 -17 43 -26 68 -28 73 -29 62 -17 -15 16 -105 53
-105 43z"/>
<path d="M1506 2259 c24 -26 31 -191 9 -213 -15 -14 -14 -17 2 -35 15 -16 27
-19 61 -14 35 5 42 9 36 22 -4 9 -9 33 -12 54 -4 36 -3 37 27 37 24 0 31 4 31
20 0 24 -25 27 -34 4 -5 -13 -9 -14 -21 -4 -8 6 -19 9 -25 5 -13 -8 -13 -82 0
-90 18 -11 10 -22 -12 -18 -22 4 -23 7 -20 106 4 102 22 165 22 74 0 -56 25
-67 32 -14 3 17 7 39 9 47 2 8 -1 14 -8 13 -7 -2 -10 3 -8 10 4 8 -11 12 -50
13 -54 2 -55 1 -39 -17z"/>
<path d="M1630 2270 c0 -3 4 -10 9 -15 5 -6 12 -24 15 -41 6 -25 3 -32 -16
-42 -16 -7 -18 -11 -7 -11 22 -1 53 35 46 53 -3 8 1 20 9 26 12 11 14 -2 14
-88 0 -56 4 -104 10 -107 19 -12 10 -22 -15 -17 -20 3 -25 10 -25 36 l0 31
-18 -35 c-13 -26 -14 -36 -4 -38 6 -2 12 -8 12 -13 0 -5 20 -9 45 -9 43 0 45
1 34 21 -6 13 -9 61 -7 125 1 57 0 104 -4 104 -4 0 -5 6 -3 13 4 8 -9 12 -45
13 -27 0 -50 -2 -50 -6z"/>
<path d="M1990 2271 c0 -3 7 -14 14 -24 17 -23 13 -191 -5 -213 -9 -11 -8 -14
4 -14 8 0 17 -4 19 -9 5 -15 181 -17 186 -2 4 13 32 15 32 2 0 -11 67 -19 82
-10 9 6 9 11 0 22 -7 8 -15 51 -19 95 -5 67 -3 86 11 107 23 35 6 49 -61 52
-57 2 -61 -1 -38 -24 20 -20 18 -214 -2 -221 -9 -2 -13 9 -13 35 0 28 -7 46
-23 61 -32 30 -40 28 -33 -11 7 -39 -13 -73 -38 -64 -23 9 -23 152 0 178 14
15 14 20 3 31 -14 13 -119 20 -119 9z m75 -112 c0 -78 3 -93 19 -105 27 -19
42 -18 64 6 18 19 18 19 29 -10 l11 -29 -62 0 c-96 1 -91 -4 -90 107 0 93 6
122 22 122 4 0 7 -41 7 -91z m211 -130 c-15 -11 -48 2 -37 15 5 6 11 49 12 96
4 133 23 136 29 4 3 -60 1 -112 -4 -115z"/>
<path d="M2711 2168 c8 -9 15 -15 17 -13 10 9 52 -46 52 -68 0 -61 -114 -88
-161 -38 -25 27 -35 22 -19 -9 13 -25 67 -50 105 -50 90 0 138 95 78 152 -32
30 -98 53 -72 26z"/>
<path d="M2633 2085 c-3 -9 0 -22 7 -28 10 -9 14 -9 17 1 3 6 14 12 25 12 29
0 16 23 -15 27 -18 3 -29 -2 -34 -12z"/>
<path d="M425 2060 c3 -5 19 -10 36 -10 16 0 29 5 29 10 0 6 -16 10 -36 10
-21 0 -33 -4 -29 -10z"/>
<path d="M535 2050 c19 -8 113 -14 104 -6 -2 2 -31 6 -64 9 -38 4 -53 3 -40
-3z"/>
<path d="M445 2020 c3 -5 29 -10 57 -10 64 0 60 5 -10 14 -37 5 -52 4 -47 -4z"/>
<path d="M1892 1908 c-19 -19 -14 -39 15 -70 29 -31 26 -46 -6 -28 -16 8 -21
8 -21 -3 0 -39 78 -54 87 -16 6 20 6 20 27 1 11 -10 28 -22 37 -25 21 -7 59
19 59 41 0 12 6 9 18 -10 15 -26 22 -28 73 -27 55 2 57 2 63 33 6 29 8 30 18
11 17 -29 38 -48 45 -41 10 10 -19 85 -44 114 l-22 26 -11 -30 c-22 -62 -45
-99 -65 -101 -16 -1 -16 -1 -2 3 9 3 17 12 17 21 0 12 -3 13 -14 4 -20 -16
-29 2 -21 39 7 31 -11 60 -37 60 -10 0 -13 -11 -10 -37 l4 -38 -21 32 c-36 56
-70 62 -104 18 -5 -6 -12 -4 -20 6 -17 23 -51 31 -65 17z m48 -30 c17 -12 30
-31 30 -42 0 -18 -5 -16 -35 16 -50 52 -47 65 5 26z m102 5 c22 -19 24 -56 3
-73 -23 -19 -38 -2 -32 37 5 29 4 33 -8 23 -16 -14 -18 -10 -9 14 8 20 23 20
46 -1z"/>
<path d="M2324 1855 c1 -30 4 -55 9 -55 4 0 7 -7 7 -15 0 -8 7 -15 15 -15 9 0
15 9 15 22 l0 21 25 -23 c30 -29 44 -20 21 14 -9 15 -12 27 -6 31 31 19 -14
75 -60 75 -26 0 -27 -2 -26 -55z"/>
<path d="M1528 1669 c5 -64 5 -64 -32 -49 -40 15 -32 -8 9 -26 58 -24 72 -20
70 23 -2 25 -8 39 -21 44 -16 6 -16 8 -2 8 9 1 18 6 20 13 7 20 38 0 38 -25 0
-35 43 -77 79 -77 49 0 67 56 34 106 -23 36 -52 45 -87 27 -22 -12 -30 -12
-36 -2 -5 6 -16 9 -25 5 -9 -3 -24 -2 -34 3 -16 9 -17 4 -13 -50z m170 -8 c4
-22 -13 -51 -29 -51 -14 0 -20 39 -9 60 14 26 34 21 38 -9z"/>
<path d="M1857 1713 c-16 -8 -27 -10 -27 -3 0 5 -22 10 -50 10 -29 0 -50 -5
-50 -11 0 -5 5 -7 11 -3 16 10 29 -15 29 -58 0 -47 8 -68 27 -68 10 0 14 10
13 38 -3 57 -1 72 10 72 6 0 10 -11 10 -24 0 -36 46 -86 79 -86 15 0 32 5 39
12 29 29 -2 119 -46 130 -10 3 -31 -1 -45 -9z m51 -15 c17 -17 15 -63 -3 -78
-21 -17 -29 -7 -27 35 1 21 -3 33 -8 30 -6 -3 -10 1 -10 9 0 19 31 21 48 4z"/>
<path d="M2571 1709 c-22 -21 -25 -21 -36 -6 -18 25 -33 21 -28 -7 3 -13 16
-29 29 -35 13 -6 24 -17 24 -24 0 -21 44 -57 68 -57 12 0 22 5 22 10 0 6 -5
10 -11 10 -5 0 -7 5 -3 12 5 7 2 9 -9 5 -24 -9 -39 16 -27 47 10 26 33 35 45
16 9 -15 25 -12 25 4 0 18 -19 33 -50 41 -18 4 -32 0 -49 -16z"/>
<path d="M1961 1713 c2 -26 57 -119 72 -121 19 -4 25 32 7 43 -6 4 -8 16 -5
28 2 12 2 16 -1 10 -8 -18 -24 -16 -24 3 0 8 -6 22 -14 30 -16 15 -36 19 -35
7z"/>
<path d="M2084 1704 c-19 -13 -20 -18 -10 -49 23 -67 82 -99 110 -59 12 15 46
10 46 -7 0 -5 16 -9 35 -9 19 0 35 5 35 10 0 6 -4 10 -10 10 -5 0 -10 7 -10
15 0 9 -6 12 -15 9 -12 -5 -15 3 -15 35 0 23 -5 41 -11 41 -5 0 -7 5 -4 10 3
6 -2 10 -13 10 -15 0 -18 -6 -15 -32 l4 -33 -28 33 c-31 35 -64 41 -99 16z
m72 -19 c15 -23 15 -27 0 -50 -22 -33 -40 -22 -33 21 6 35 -6 47 -17 18 -4 -9
-9 -14 -12 -11 -9 9 16 47 31 47 8 0 22 -11 31 -25z"/>
<path d="M2280 1710 c0 -5 6 -7 14 -4 16 6 32 -52 23 -85 -4 -15 20 -41 38
-41 3 0 5 22 5 49 0 34 5 51 15 55 8 3 12 12 9 21 -7 17 -104 22 -104 5z"/>
<path d="M2399 1668 c-13 -29 -25 -56 -27 -60 -2 -5 3 -8 12 -8 9 0 16 -4 16
-10 0 -5 5 -10 10 -10 6 0 10 8 10 18 0 9 4 24 10 32 7 12 10 11 16 -5 9 -24
29 -45 42 -45 6 0 12 6 15 13 4 10 7 10 18 0 19 -19 29 -16 29 7 0 11 -6 20
-14 20 -8 0 -17 10 -19 23 -4 18 -5 17 -6 -6 -1 -37 -21 -31 -35 11 -6 17 -20
41 -32 52 l-20 21 -25 -53z m26 -10 c-7 -35 -21 -55 -30 -46 -6 6 22 78 31 78
3 0 3 -15 -1 -32z"/>
<path d="M2688 1664 c-23 -48 -25 -59 -13 -70 19 -19 35 -17 35 4 0 9 4 24 10
32 7 12 10 11 16 -5 11 -29 33 -48 48 -42 11 5 9 16 -10 54 -14 26 -33 56 -42
66 -17 17 -19 15 -44 -39z"/>
<path d="M495 1626 c-35 -17 -19 -21 21 -6 19 8 29 8 34 0 4 -7 14 -7 31 -1
21 8 21 10 4 11 -11 0 -29 2 -40 5 -11 3 -33 -2 -50 -9z"/>
<path d="M502 1545 c-40 -19 -72 -31 -72 -28 0 4 -5 2 -12 -5 -9 -9 -9 -15 0
-24 9 -9 12 -9 12 0 0 7 34 28 75 47 41 18 75 36 75 39 0 9 0 9 -78 -29z"/>
<path d="M356 1535 c31 -26 37 -29 47 -19 9 9 -21 36 -32 29 -5 -3 -12 -1 -16
5 -3 5 -11 10 -17 10 -6 0 2 -11 18 -25z"/>
<path d="M1039 1165 c-9 -25 -13 -45 -9 -45 5 0 13 12 18 28 5 15 13 35 17 45
4 9 3 17 -2 17 -4 0 -15 -20 -24 -45z"/>
<path d="M965 1085 c-34 -77 -31 -83 6 -11 17 32 28 60 25 63 -3 3 -17 -20
-31 -52z"/>
<path d="M989 1079 c-6 -12 -15 -36 -20 -53 -8 -31 -8 -30 27 12 21 25 41 39
47 35 7 -4 6 1 -2 10 -18 23 -38 21 -52 -4z"/>
<path d="M1213 1065 c-3 -9 -3 -18 0 -22 10 -10 37 6 37 22 0 20 -29 20 -37 0z"/>
<path d="M1193 988 c-6 -7 -16 -32 -22 -54 -7 -27 -25 -54 -50 -77 -40 -36
-42 -47 -10 -47 37 0 125 158 102 181 -6 6 -14 5 -20 -3z"/>
</g>
</svg>
